<?xml version="1.0" encoding="utf-8"?>
<!-- Generator: Adobe Illustrator 24.2.0, SVG Export Plug-In . SVG Version: 6.00 Build 0)  -->
<svg version="1.1" id="Layer_1" xmlns="http://www.w3.org/2000/svg" xmlns:xlink="http://www.w3.org/1999/xlink" x="0px" y="0px"
	 viewBox="0 0 284.3 164.8" style="enable-background:new 0 0 284.3 164.8;" xml:space="preserve">
<style type="text/css">
	.st0{fill:#FFFFFF;}
</style>
<g>
	<path class="st0" d="M19.1,54.9c2.6,0,4.8,0,6.9,0c1,0,1.9,0.2,3.2,0.3c0.3,3.2,0.5,6.2,0.9,10.1c1.7-1.8,2.8-3,3.9-4.2
		c10.7-11.3,32-10.3,40.9,3.7c3.5,5.4,5.5,11.3,5.8,17.8c0.3,6.3,0.2,12.6-2,18.7c-3.3,9.1-8.9,16.2-18.5,18.7
		c-9.6,2.4-18.9,2-26.5-5.7c-0.4-0.4-1-0.7-2.1-1.5c0,11.2,0,21.8,0,32.6c-4,1.1-7.5,0.7-11.6,0.4c-0.1-1.9-0.2-3.6-0.2-5.4
		c0-21.8,0-43.6,0-65.5c0-5.6-0.5-11.3-0.7-16.9C18.8,57.3,19,56.4,19.1,54.9z M30.9,88.2c0.2,0,0.4,0.1,0.6,0.1c0,2.5-0.1,5,0,7.5
		c0.1,1.8,0.4,3.7,1.2,5.3c3.5,7.2,9.1,11.2,17.4,11c8.1-0.2,13.5-4.4,16.5-11.5c3.6-8.6,3.7-17.4,0-26.1c-2-4.7-5.2-8.5-10.2-10.4
		c-11.2-4.2-20.6,3-23.5,11C31.5,79.2,31.5,83.8,30.9,88.2z"/>
	<path class="st0" d="M197.1,87.5c-0.6,3.8-0.8,7.6-1.8,11.3c-3.5,13.3-14.7,21.8-28.5,22.4c-9.9,0.4-18.4-2.1-25.2-9.6
		c-4.5-5-6.6-11.1-7.6-17.6c-1.3-9,0-17.6,4.4-25.6c3.9-7.1,10.1-11.4,17.8-13.4c6.1-1.6,12.3-1.7,18.3-0.2
		c13.6,3.5,20.5,14.5,21.9,26.8c0.2,2,0,4,0,6C196.8,87.4,197,87.5,197.1,87.5z M184.8,87.6c0.3-6-1.1-11.6-4.2-16.7
		c-7.2-11.5-23.1-11.8-30.3-0.3c-6.4,10.3-6.6,21.3-1,31.9c7.1,13.5,24,13.6,31.8,0.4C183.8,98.2,185,93.1,184.8,87.6z"/>
	<path class="st0" d="M263.4,110c0,3.6,0,6.4,0,9.8c-18.2,0-36.3,0-54.3,0c-1.5-4.7-0.4-8,2.9-11.1c7.4-6.9,14.6-14.1,21.6-21.4
		C239,81.9,243.9,76,247.2,69c2.3-4.7,2.9-9.5,2.3-14.6c-0.8-7.4-6.7-12.7-14.5-13.4c-5.9-0.5-11.2,1.1-16.2,4
		c-1.5,0.9-3,1.9-4.9,3.1c-1.3-2.8-2.4-5.3-3.6-8c4.3-4.1,9.3-6.4,14.6-7.7c5.5-1.3,11.1-1.8,16.8-0.6c11.6,2.4,19.4,11.2,19.8,23
		c0.4,9.4-3.1,17.5-8.4,25.1c-6.8,9.7-15.6,17.7-24,26c-1.1,1-2.4,1.8-3.3,3.3c4.3,1.1,8.3,0.8,12.3,0.8c4.2,0,8.3,0,12.5,0
		C254.7,110,258.9,110,263.4,110z"/>
	<path class="st0" d="M107.6,119.7c-4.3,0-7.7,0-11.6,0c0-21.4,0-42.6,0-64.3c2.9,0,5.9,0,9.4,0c0.2,3.6,0.3,7.2,0.6,11.9
		c1.3-2.1,2.1-3.3,2.8-4.5c3.2-5.3,7.9-8.4,14-9.3c1.4-0.2,2.9,0.2,4.6,0.3c0,3.7,0,6.9,0,10.6c-1.1,0.1-2.4,0.3-3.7,0.3
		c-6.1,0-10.4,3-13.2,8.2c-1.9,3.6-3,7.4-2.9,11.5c0.1,10,0,20,0,29.9C107.6,116,107.6,117.7,107.6,119.7z"/>
</g>
</svg>
