<?xml version="1.0" encoding="utf-8"?>
<!-- Generator: Adobe Illustrator 24.2.0, SVG Export Plug-In . SVG Version: 6.00 Build 0)  -->
<svg version="1.1" xmlns="http://www.w3.org/2000/svg" xmlns:xlink="http://www.w3.org/1999/xlink" x="0px" y="0px"
	 viewBox="0 0 3501.6 1762.9" style="enable-background:new 0 0 3501.6 1762.9;" xml:space="preserve">
<style type="text/css">
	.st0{display:none;}
	.st1{display:inline;fill:#E6F0F7;}
	.st2{display:inline;}
	.st3{clip-path:url(#SVGID_2_);}
	.st4{fill:#FAB334;}
	.st5{fill:#3BA9E0;}
	.st6{fill:#127DC2;}
	.st7{fill:#FFFFFF;}
	.st8{fill:#2360AB;}
	.st9{fill:#2A3180;}
	.st10{clip-path:url(#SVGID_4_);}
	.st11{clip-path:url(#SVGID_6_);}
	.st12{fill:#C7C6C6;}
	.st13{clip-path:url(#SVGID_8_);}
	.st14{fill:none;stroke:#FFFFFF;stroke-width:10;stroke-miterlimit:10;}
	.st15{fill:#C6C6C6;}
	.st16{fill:#DFF0F4;}
	.st17{fill:#F2F2F2;}
	.st18{fill:#FDFDFD;}
	.st19{opacity:0.51;fill:#2BABE2;}
	.st20{fill:#BDDCF2;}
	.st21{fill:#960C41;}
	.st22{fill:#89CDF2;}
	.st23{fill:#56BCE8;}
	.st24{opacity:0.74;fill:#2BABE2;}
	.st25{fill:#3866AB;}
	.st26{opacity:0.45;}
	.st27{fill:#147C14;stroke:#1D1D1B;stroke-width:4;stroke-miterlimit:10;}
	.st28{fill:#147C14;stroke:#1D1D1B;stroke-width:4;stroke-linecap:round;stroke-linejoin:round;}
	.st29{fill:#F28300;}
	.st30{fill:url(#SVGID_9_);}
	.st31{fill:url(#SVGID_10_);}
	.st32{fill:url(#SVGID_11_);}
	.st33{fill:url(#SVGID_12_);}
	.st34{fill:url(#SVGID_13_);}
	.st35{fill:url(#SVGID_14_);}
	.st36{fill:url(#SVGID_15_);}
	.st37{fill:url(#SVGID_16_);}
	.st38{fill:url(#SVGID_17_);}
	.st39{fill:url(#SVGID_18_);}
	.st40{fill:#2BABE2;}
	.st41{opacity:0.45;fill:#FAB334;}
</style>
<g id="bg" class="st0">
	<rect y="-981.7" class="st1" width="3501.6" height="2744.6"/>
</g>
<g id="people" class="st0">
	<g class="st2">
		<g>
			<defs>
				<rect id="SVGID_1_" x="676.2" y="-778.1" width="2139" height="1312.5"/>
			</defs>
			<clipPath id="SVGID_2_">
				<use xlink:href="#SVGID_1_"  style="overflow:visible;"/>
			</clipPath>
			<g class="st3">
				<g>
					<path class="st4" d="M837.2-270.7c0,0-62.8-8.4-72.1-46.9c-9.2-38.5-7.5-81.3-0.8-95.5c6.7-14.2,39.4-27.6,39.4-27.6
						S827.9-450,833-465c5-15.1,26-66.2,38.5-75.4c12.6-9.2,24.3-24.3,78.8-18.4c54.5,5.9,66.2,36.9,66.2,36.9s6.7,23.5,5,45.2
						s-4.2,51.9,0.8,59.5c5,7.5,37.7,13.4,37.7,13.4s26,8.4,32.7,25.1c6.7,16.8,6.7,107.2-43.6,133.2
						C1046.6-244.7,837.2-270.7,837.2-270.7z"/>
				</g>
				<g>
					<path class="st5" d="M803.5,56.1c0,0-69.1,313.7-61.4,486.4l360.4,1.8c0,0-27.7-386.5-43.1-477.4L803.5,56.1z"/>
				</g>
				<g>
					<path class="st6" d="M846.3,266.5c0,0-100-139.4-104.6-174.3c-4.5-34.9-3-215.2-3-237.9c0-22.7-1.5-72.7,19.7-89.4
						c21.2-16.7,81.8-42.4,81.8-42.4s87.9,18.2,125.8,1.5l80.3,19.7c0,0,33.3,10.6,42.4,63.6s33.3,304.6,33.3,304.6
						s-3,37.9-59.1,89.4c-56.1,51.5-103,77.3-103,77.3l-42.4-40.9c0,0,21.1-18.8,23.2-29.9c2-11.1,12.1-32.2,17.1-38.3
						c5-6,55.4-81.5,55.4-81.5L840,80l64.4,155l-47.3,34.2C857.2,269.2,854.6,279.8,846.3,266.5z"/>
				</g>
				<g>
					<path class="st7" d="M881.4-327.4l1.4-29.8c0,0-2.8-8.3-7.6-14.5c-4.8-6.2-36.7-27-16.6-110.8c0,0,78.2,6.9,126.7,20.1
						c0,0-0.7,49.9-12.5,65.8c-11.8,15.9-18.7,17.3-18.7,17.3s-2.8,6.9-2.8,11.1c0,4.2,0.7,31.2,0.7,31.2s-30.5,20.1-42.2,18
						C898-321.1,881.4-327.4,881.4-327.4z"/>
				</g>
				<g>
					<path class="st7" d="M960,278.6L922.6,245l-13.7,11.8l-11.8-15.7c0,0-30.7,18.9-35.9,28.1l17,33.9c0,0-3.9,21.5-5.2,23.5
						c-1.3,2-4.6,9.8,1.3,8.5c5.9-1.3,13.1-18.3,13.1-18.3s2.6,35.2,5.2,39.8c2.6,4.6,0.7,13.7,9.8,9.8c9.1-3.9,16.3-17,16.3-17
						s13.1,5.9,19.6-0.7c6.5-6.5,12.4-31.3,11.1-52.2"/>
				</g>
				<g>
					<path class="st5" d="M858-336.1c0,0,45.9,18.1,54.9,15.5c9-2.6,39.1-16.5,39.1-16.5s11.3-6.1,18.4-1c7.1,5.2-1.3,63.3-1.3,63.3
						s-81.3,19.5-128.8-2.8c0,0-1.7-42.4,3.5-49.5S858-336.1,858-336.1z"/>
				</g>
				<g>
					<path class="st8" d="M986.7-349.9c-1.9,0-3.7-0.6-5.1-2.5c-3-3.9-9.2-14.1-9.7-15c-1.3-2-2.8-6.1-0.1-8.8l0.1-0.1l14.3-12.6
						c2-2,6.2-4.5,9.4-1.8c2.8,2.3,10.7,15.7,12.2,18.4l0.1,0.2l0.1,0.2c0.1,0.2,1.7,5.3-4.1,10.6c-4.8,4.3-10,8.7-10.1,8.8
						l-0.1,0.1C992.1-351.2,989.4-349.9,986.7-349.9z M974.8-373c-0.6,0.7,0.2,2.5,0.7,3.3l0.1,0.1c0.1,0.1,6.5,10.8,9.4,14.6
						c1.6,2,5.6-0.5,6.1-0.8c0.7-0.6,5.5-4.6,9.9-8.6c3.1-2.8,3-5.2,2.9-5.8c-3.7-6.4-9.5-15.7-11.1-17c-0.7-0.6-2.7,0.7-3.6,1.6
						l-0.1,0.1L974.8-373z"/>
				</g>
				<g>
					<path class="st8" d="M826.5-361.8c-3.4,0-6.4-2.9-7.9-5l-0.1-0.1c0-0.1-3.2-5.4-6-10.6c-2.8-5.2-1.3-8.9-0.1-10.3l0.2-0.2
						l0.2-0.1c2.2-1.6,13.6-9.4,16.8-10.3c3.7-1,6.5,2.5,7.7,4.8l8.5,15.3c1.6,3.4-1.2,6.3-3.2,7.5c-0.8,0.5-9.5,6.4-13.4,8.4
						C828.4-362,827.4-361.8,826.5-361.8z M822.2-369.2c0.3,0.4,3.1,3.9,5.1,2.9c3.8-1.9,12.9-8.1,13-8.2l0.1-0.1
						c0.7-0.4,1.7-1.4,1.5-1.8l-8.5-15.2c-0.6-1.2-1.9-2.8-2.6-2.6c-1.6,0.4-8.9,5.1-15.1,9.4c-0.3,0.5-0.9,2.2,0.7,5.2
						C818.9-374.9,821.8-370,822.2-369.2z"/>
				</g>
				<g>
					<path class="st9" d="M1062.5-138.3l-4.7,52.4l-169.4,3.7l-103,2.8l-3.7-51.5c0,0,172.2-3.7,197.5-2.8
						C1004.5-132.7,1062.5-138.3,1062.5-138.3z"/>
				</g>
			</g>
			<g class="st3">
				<g>
					<path class="st6" d="M2648.8,228.5l42.5,298.2c0,0-143.6,0.7-302.7,0l-93.6-312L2648.8,228.5z"/>
				</g>
				<g>
					<path class="st5" d="M2440-444.5c-14.6-3.7-31-17.2-34.3-32.4c-3.7-16.9,11.6-29.1,10.4-45.2c-0.7-8.8-9.7-15.9-14.7-22.9
						c-6.2-8.7-11.1-18-12.2-28.8c-2.2-21.4,16.9-16.6,32.3-13.6c7.6,1.5,14.5,2.7,22.2,2.9c2.4,0.1,7.5,1,9.7,0
						c5-2.1,2.1-2.5,4.8-5.3c7-7,8.8-9.3,20.1-5.7c9.9,3.1,20.6,8,29.6,13.1c26.1,14.5,60.7,37.4,66.3,68.4
						c4.4,24.6-5.5,56-11.6,77.2"/>
				</g>
				<g>
					<defs>
						<path id="SVGID_3_" d="M2292.7,220.3c112.1,29.1,352.9,11.1,352.9,11.1c91.1-9.2,139-9.9,151.9-75.8c9.1-46.3-8.1-92-17.7-137
							c-9.9-46.6-5.7-91.4-8.3-138.8c-1.9-33.7-11.3-65.5-37.6-88.8c-12.8-11.3-27.7-22.4-42.6-31.2c-16.6-9.8-39.4-27.5-58.2-30.8
							l-203.4-1.4c-19.6,1.9-48.5,19-65.8,28.4c-14.1,7.7-29.4,20.9-33.8,36.6"/>
					</defs>
					<use xlink:href="#SVGID_3_"  style="overflow:visible;fill:#C7C6C6;"/>
					<clipPath id="SVGID_4_">
						<use xlink:href="#SVGID_3_"  style="overflow:visible;"/>
					</clipPath>
					<g class="st10">
						<path class="st5" d="M2589.3,76.7c0,0-22.6,104.9,0.9,169.9l231.1,26.3l54-225.6l-77.5-285.1l-85.8,6.9
							c-37.5,1.9-57.3,55.6-61.6,86.6c-3.7,27-2.4,52.7,3.1,79.4c6.4,31.2,28,112.3-10.7,130.8c-15.9,7.6-53.5,10.7-52.6,11.8"/>
					</g>
				</g>
				<g>
					<path class="st8" d="M2443.4-236.3l-22.5-34.9c0,0-7.8-7,1.6-17.1c9.3-10.1,65.9-46.5,148.9-38.8c83,7.8,74.5,58.2,74.5,58.2
						s-42.7,17.1-87.7,24C2513.2-237.8,2458.1-230.8,2443.4-236.3z"/>
				</g>
				<g>
					<path class="st6" d="M2452.5-239.9c0,0,25-79.7,26.9-89.9c1.9-10.2-0.9-22.2-13-27.8s-29-14.7-30.6-45.4
						c-1.9-35.2,3.7-82.4,13-110.2c0,0,28.7-11.1,69.5-12c40.8-0.9,37.1,5.6,37.1,5.6l-4.6,66.7c0,0-1.9,12,2.8,13
						c4.6,0.9,14.8-2.8,14.8-2.8s13.9,6.5,12,21.3c-1.9,14.8-12,38-34.3,49.1v71.3l7.4,10.2C2553.5-290.9,2488.6-243.6,2452.5-239.9
						z"/>
				</g>
				<g>
					<path class="st7" d="M2449.9-214.1c0,0-16.8,63.2-20,91.6c0,0-1.2,4.5,6.4,3.7c7.5-0.8,6.6-6.9,6.6-6.9s13.2-73.5,19.9-89.4
						c0,0,1.3-4.5-4.3-4.3C2451.4-219,2449.9-214.1,2449.9-214.1z"/>
				</g>
				<g>
					<path class="st7" d="M2483.8-213.6c0,0-8.9,86.4-8.5,124.9c0,0-0.6,6.2,6.8,4.4c7.4-1.8,5.7-9.9,5.7-9.9s4-99.9,8.7-121.9
						c0,0,0.7-6.1-4.9-5.3C2484.6-220.5,2483.8-213.6,2483.8-213.6z"/>
				</g>
			</g>
			<g class="st3">
				<g>
					<path class="st6" d="M1704,160.6c0,12.1,0,374.7,0,374.7l273-3.6l136.2,5.4l-5.5-420.9L1704,160.6z"/>
				</g>
				<g>
					<path class="st5" d="M1697.4,49.9l-17.7-298.7c0,0-4.6-55.2,26.8-75.2s183.8-84.5,183.8-84.5l71.2,16c0,0,92.6,32.2,149,77.9
						c12.1,9.8,5.2,463,5.2,463l-99.2,229.9c0,0-85.4,1.1-92.6-106.8c0,0-12.6-69.4-15.4-124.5c-10.6-1.8-22.7-0.6-30.3,0
						c-23.4,227.9-85.3,240.6-137.5,215.9l-33.2-37.1L1697.4,49.9z"/>
				</g>
				<g>
					<path class="st9" d="M1846.1-388.5c0,0,39-15.4,41.7-24.5c2.7-9.1,1.8-20.9,1.8-20.9s-12.7-16.3-20.9-27.2
						s-17.2-27.2-22.7-65.3c-5.4-38.1-5.4-67.1-5.4-67.1l115.2-28.1c0,0,29.9,17.2,32.7,36.3c2.7,19.1,2.7,91.6-8.2,116.1
						c-10.9,24.5-16.3,26.3-17.2,39.9c-0.9,13.6-7.8,26.7-2.5,32.4s30.7,16.6,30.7,16.6l-7.3,32.7l-58.1,36.3c0,0-14.5,3.6-23.6-0.9
						c-9.1-4.5-50.8-44.5-50.8-44.5L1846.1-388.5z"/>
				</g>
				<g>
					<path class="st6" d="M1846.1-526.4c0,0-19.4-6.8-23.7-25.8c0,0,1.1-8.4,5.8-18.4c4.7-10,3.2-18.4,1.6-23.2
						c-1.6-4.7-12.1-20-1.1-32.6c11.1-12.6,50-42.7,82.1-46.9c32.1-4.2,46.3,17.4,46.3,17.4l37.4,57.9c0,0,2.6,30,0.5,42.1
						c-2.1,12.1-6.8,14.7-6.8,14.7s-4.2-30-6.3-34.8c-2.1-4.7-18.4-26.3-26.3-30c0,0-4.7-1.6-1.6,5.8c3.2,7.4,5.3,21.1-4.2,21.1
						c-9.5,0-101.1-11.1-107.4-13.2c0,0,0.5,32.6,1.1,44.2C1844-536.5,1846.1-526.4,1846.1-526.4z"/>
				</g>
				<g>
					<path class="st5" d="M1888.9-500.9c0,0,64.7-9.6,74-12.4c0,0,0.1,2.1-9.1,10.7c-4.7,4.4-15.7,12.6-32,12.9
						C1910.2-489.5,1893.8-493.3,1888.9-500.9z"/>
				</g>
				<g>
					<defs>
						<path id="SVGID_5_" d="M1851.5-356.7c0,0,16.6,354.1,17.1,495.2c18.6,12.4,29.4,7.7,40.2,9.3c18.6-222.8,67-456.1,75.1-495.4
							c0,0-49.7,34.2-69.9,40.2L1851.5-356.7z"/>
					</defs>
					<use xlink:href="#SVGID_5_"  style="overflow:visible;fill:#FFFFFF;"/>
					<clipPath id="SVGID_6_">
						<use xlink:href="#SVGID_5_"  style="overflow:visible;"/>
					</clipPath>
					<g class="st11">
						<path class="st4" d="M1915.5-295.9c-6.3,0-10.3-1.9-10.6-2.1l-0.6-0.3l-70.3-55.5l8.1-10.3l69,54.5c1.9,0.6,8.6,2.1,18.1-4.1
							c14.4-9.3,60.6-40.1,61.1-40.4l7.3,10.9c-0.5,0.3-46.7,31.1-61.2,40.5C1928.2-297.4,1921-295.9,1915.5-295.9z"/>
					</g>
				</g>
			</g>
			<g class="st3">
				<g>
					<path class="st5" d="M2013.9,350.2L1977,531.6c0,0,288.1,3,410.3-0.2c0,0-26.6-201.8-28.4-208.8
						c-1.8-7-113.4-112.6-113.4-112.6l-152.3,61.6L2013.9,350.2z"/>
				</g>
				<g>
					<path class="st9" d="M1973.8-68.2c-16.9-7.7-36.9-29.3-37.4-48.8c-0.6-21.3,22.8-34.9,32.4-51.4c9-15.6,4.2-29.2,9.4-45.5
						c7.4-23.2,35.2-28.8,54.2-39.8c25.3-14.6,57.2-36.8,64.1-67.3c7-31.2,1.5-65.2,8.8-96.4c8.7-37.1,14.9-62.4,58.9-86.9
						c24.1-13.4,78.1-17.9,96.2,9.8c13.1,20.1,12.8,47.8,11.3,72.1c-1.1,17.7-3.6,35.2-6.2,52.5c-1.7,11.7-5.3,29.7-2.6,41.4
						c2.9,12.8,14,17.4,23.8,25.7c20.7,17.5,9.9,32.8,10.3,55.8c0.4,25.5,29.1,25.8,48.5,29.9c47,9.9,45.3,77.9,27.7,111.4
						c-12.3,23.4-34.3,44.7-60.2,50"/>
				</g>
				<g>
					<path class="st7" d="M2135-158.3l120.1,7.2c0,0-24,217.4-51.7,275.1C2203.5,124,2147-64.6,2135-158.3z"/>
				</g>
				<g>
					<path class="st8" d="M2028.9,147.6c-16-1.3-24.9-11.6-30-26.3c-15.8-45.5-14.5-97.7-18.7-144.8c-3.3-37.5-1.4-78.3,4.6-115.4
						c2.4-14.9,4.4-28.1,18.8-34.7c35.6-16.2,74.2-24.7,107.2-46.7c13.1-8.7,22.4-21.1,34.5-30c-1.3,17.1-7.5,32-6.6,49.6
						c0.9,17.1,5.2,35,8.8,51.8c7.9,37.3,15.2,87.5,22.4,124.9c10.2,52.7,41.2,130.7,41.2,184.6c0,34-15.1,89.5-31.3,120.4
						c-15,28.5-48.2,51.1-75.5,67.6c-21.4,12.9-88.4,38.2-104,37.1c1-7.3,77.7-213.2,78.8-251.6c-7,2.4-12.5,7.8-20.1,10
						C2049.4,146.9,2038.9,148.4,2028.9,147.6z"/>
				</g>
				<g>
					<path class="st8" d="M2204.5-252.3c16.9,30.8,55.9,43.3,87.5,52.8c13.5,4.1,25.9,7.7,30,22.8c5,18.9,4.2,39.5,8.5,58.6
						c11.6,51.3,46.9,93,53.3,146.2c3.3,27.7,4.2,82.3-24.4,97.8c-20.6,11.2-41.2,6.8-62.3,2.2c8.3,15,13.3,31.3,20.1,47.1
						c8.7,20.3,18.3,41.3,24.6,62.3c6.9,23.2,14.9,46.6,22.4,69.8c5.9,18.3,20.1,45.8,14.3,65.2c-24.5-6.8-49.9-12.7-73.6-23.5
						c-32.3-14.7-60.4-33.1-87.9-55.3c-19.8-16-30.9-30.9-31.2-58.3c-0.3-37.5,2.2-160.6,5.7-173.9c4-15.3,26.5-77.8,28.8-93.5
						c15.9-107.3,6.3-155.5,0.6-169.8"/>
				</g>
				<g>
					<path class="st4" d="M2146.2-157c0,0-13.1-51.2-7.2-71.9c6-21,0-80.5-2.4-90.7c-3.6-15.2-12-76.3-11.5-87.8
						c10.8-1.5,23-4.1,33.5-7.6c6.5-2.1,12.6-5.4,18.5-8.6c2.2-1.2,13.2-9,15.5-7.5c6.9,4.4-34.4,38.2-13.5,32.3
						c50.2-14,61.1-34.9,66.1-37.6c2,6.1-5.6,50.2-9.2,65.6c-3.9,16.4-7.2,33.1-14.8,48.2c-2.4,4.7-10.1,14-11.6,18.8
						c-0.8,2.6,18.1,121.7,19,152.5C2228.5-151.1,2165.4-152.6,2146.2-157z"/>
				</g>
				<g>
					<path class="st4" d="M2089.7,21.6c0,0,15.1-27.2,26.4-23.3c14.3,4.9,37.1,7.6,37.1,7.6l76.6,17.7L2219.4,76l-79.9-47.2
						l-55.9,2.5L2089.7,21.6z"/>
				</g>
				<g>
					<path class="st4" d="M2205.6,19.7c0,0,49.8-13,66.2-23.5c16.4-10.5,24.1,2.4,48.6,11.2c11.2,3.1,2.3,36.3-5.4,35.2
						c-32-4.4-37.5-21.5-60.2-20.7l-34.6,4.3L2205.6,19.7z"/>
				</g>
				<g>
					<path class="st5" d="M2244.9-312.1c-9.1,0-16.4-7.4-16.4-16.4s7.4-16.4,16.4-16.4s16.4,7.4,16.4,16.4S2254-312.1,2244.9-312.1z
						 M2244.9-341.5c-7.1,0-12.9,5.8-12.9,12.9s5.8,12.9,12.9,12.9s12.9-5.8,12.9-12.9S2252.1-341.5,2244.9-341.5z"/>
				</g>
				<g>
					<path class="st5" d="M2114.2-312.1c-9.1,0-16.4-7.4-16.4-16.4s7.4-16.4,16.4-16.4c9.1,0,16.4,7.4,16.4,16.4
						S2123.3-312.1,2114.2-312.1z M2114.2-341.5c-7.1,0-12.9,5.8-12.9,12.9s5.8,12.9,12.9,12.9s12.9-5.8,12.9-12.9
						S2121.3-341.5,2114.2-341.5z"/>
				</g>
			</g>
			<g class="st3">
				<g>
					<path class="st5" d="M1106.3,7.7c0,0,5.4,93.5,11.8,135.5l41.9,9.7l28-101.1L1106.3,7.7z"/>
				</g>
				<g>
					<path class="st5" d="M1098.8,270.1c0,0-2.2,14,8.6,20.4s37.6,15.1,37.6,15.1l1.1-25.8L1098.8,270.1z"/>
				</g>
				<g>
					<path class="st12" d="M1159.5,148.2l-126.3-28l-10.6,139.2l123.5,20.4C1146.1,279.7,1154.5,158.5,1159.5,148.2z"/>
				</g>
				<g>
					<path class="st4" d="M1182.8,9c0,0-60,317.7-54.9,535.3c0,0,130.4-4.2,266.2-3.6l20.1-306.7L1335.8,3.8L1182.8,9z"/>
				</g>
				<g>
					<path class="st8" d="M1187.8-594.7l92.1,31.1c0,0,24.6,7.8,29.8,53.2c5.2,45.4,6.5,80.4,6.5,80.4s-2.6,31.1,35,36.3
						c37.6,5.2,37.6,5.2,37.6,5.2s32.4-2.6,28.5,37.6s-22,77.8-35,97.2l-255.4,18.2c0,0-3.9-156.9-10.4-181.5
						c-6.5-24.6-7.8-48,2.6-66.1c10.4-18.2,19.4-29.8,19.4-29.8s-9.1-46.7,10.4-67.4C1168.4-601.2,1187.8-594.7,1187.8-594.7z"/>
				</g>
				<g>
					<path class="st9" d="M1266.9-319.8l112.8,46.7c0,0,19.4,13,25.9,35c6.5,22-71.3,246.3-71.3,246.3l-153,5.2l-9.8,37.7
						l-71.9-45.5c0,0-15.6-6.5-13-24.6c2.6-18.2,5.2-41.5-2.6-75.2s-24.6-86.9,1.3-121.9s84.3-79.1,93.3-86.9L1266.9-319.8z"/>
				</g>
				<g>
					<defs>
						<path id="SVGID_7_" d="M1179.1-288.4c0,0,11.7-18.2,8.5-33.1c-3.2-14.9-7.5-37.4-7.5-37.4s-43.9-29.1-52.7-88.1
							c-8.8-59.1,33.5-84.6,33.5-84.6l12-8.8c0,0,21.5,22.3,30.3,25.5c8.8,3.2,44.7,14.4,51.9,24.7c7.2,10.4,0,72.6-20.8,106.9
							c0,0-7.2,12.8-1.6,20c5.6,7.2,24.7,43.9,24.7,43.9l18.4,6.4c0,0-7.2,47.1-56.7,47.9C1169.8-264.2,1179.1-288.4,1179.1-288.4z"
							/>
					</defs>
					<use xlink:href="#SVGID_7_"  style="overflow:visible;fill:#3BA9E0;"/>
					<clipPath id="SVGID_8_">
						<use xlink:href="#SVGID_7_"  style="overflow:visible;"/>
					</clipPath>
					<g class="st13">
						<path class="st7" d="M1258.3-459.2l-3.6-2.4c2.7-4,6.6-12.7,6.6-17.9h4.4C1265.6-473,1261.2-463.5,1258.3-459.2z"/>
					</g>
					<g class="st13">
						<path class="st7" d="M1233.4-445.9c-16.6,0-30-13.5-30-30c0-16.6,13.5-30,30-30l0.2,0l13.4,1.3l-0.4,4.3l-13.3-1.3
							c-14.1,0.1-25.6,11.6-25.6,25.7c0,14.2,11.5,25.7,25.7,25.7c8.5,0,16.5-4.2,21.3-11.3l3.6,2.4
							C1252.7-450.9,1243.4-445.9,1233.4-445.9z"/>
					</g>
				</g>
				<g>
					<path class="st7" d="M1154.8-441.3c-16.6,0-30-13.5-30-30c0-16.6,13.5-30,30-30c16.6,0,30,13.5,30,30
						C1184.9-454.8,1171.4-441.3,1154.8-441.3z M1154.8-497c-14.2,0-25.7,11.5-25.7,25.7c0,14.2,11.5,25.7,25.7,25.7
						c14.2,0,25.7-11.5,25.7-25.7C1180.5-485.5,1169-497,1154.8-497z"/>
				</g>
				<g>
					<path class="st14" d="M1233.4-503.8"/>
				</g>
				<g>
					<path class="st7" d="M1168.7-429.4c0,0,41-4.5,48.2-4.9c7.1-0.4,5.4,8.5,5.4,8.5s-1.3,16.5-25.4,17.4
						c-24.1,0.9-29-14.3-29-14.3S1164.2-427.6,1168.7-429.4z"/>
				</g>
				<g>
					<path class="st4" d="M1102.3-385.6l18.6-21.4c1.4-1.6,3.9-1.2,4.8,0.7l12.3,26.5c1,2.1-0.8,4.5-3.1,4.1l-30.8-5.1
						C1101.8-381.2,1100.9-383.9,1102.3-385.6z"/>
				</g>
				<g>
					<path class="st4" d="M1261-401.1l10.6-27.8c0.8-2.1,3.3-2.5,4.8-0.8l20.5,23.8c1.6,1.9,0.7,4.9-1.6,5.2l-31.1,4.1
						C1262-396.4,1260.2-398.8,1261-401.1z"/>
				</g>
				<g>
					
						<rect x="1183.8" y="-481.9" transform="matrix(0.9969 -7.871628e-02 7.871628e-02 0.9969 41.4688 92.5595)" class="st7" width="21.9" height="4.4"/>
				</g>
			</g>
			<g class="st3">
				<g>
					<path class="st6" d="M1389.8,290.6c-10.9-10.3-33.9-16.2-48.5-21.3c-0.9-21.5,6.8-46.7,10-68.3c3.1-20.3,0.8-37.2-1.1-57.4
						c-2-21.8,14.1-45.9,17.8-67.3c5.7-32.7,5.7-65.1,3.2-98.2c-3.6-47.3-13.8-92.2-9.1-140.9c1.7-17.5,2.4-38.9,12.1-54.1
						c13.8-21.4,38.8-35.9,59.1-50.4c35.8-25.7,74-52.3,96.2-90.6l93.6,1.3c32.4,47.3,79.4,64,126.5,93.3
						c20.3,12.6,35.8,32.2,51.5,50.1c21.5,24.6,42.9,48.9,63.7,74c37,44.7,72.4,99.4,78.5,157.3c5.4,50.9-36,101.4-76.5,130.3
						c-21.6,15.4-41-8.2-60.5,1.1c-14.2,6.7-16.5,20.7-32.9,6.8c-9.3-7.9-24.5-26.6-29.2-38.3c6.7-10.4,16.8-19.3,26-28
						c13.1-12.4,26.8-24.1,39.9-36.5c11.6-10.9,26.7-21.7,35.8-34.4c-5.1-4-14.7-4.4-21.4-6.5c-15.6-4.8-30.2-12.6-44.7-19.8
						c-12.9-6.5-28.1-15.3-41.9-18.3c-5.1,23.2-4,48.2-7.8,72c-3,18.9-5.3,37.3-9.6,55.7c-2.1,9-19,44.9-18.4,46.1l-275.5,2.6"/>
				</g>
				<g>
					<path class="st9" d="M1414,149.9c0,0-53.2,348.3-54.2,385.4c0,0,195.6,1.1,420.2,5.4l-77.7-392.5L1414,149.9z"/>
				</g>
				<g>
					<path class="st15" d="M1378.4,390.2c-19,8.4-31.6-15.8-39.2-30.3c-18.9-35.9,26.3-47.6,23.8-81.4l28.5,11.9L1378.4,390.2z"/>
				</g>
				<g>
					<path class="st15" d="M1527.9-415.6c0,0-16.5-31.2-20.3-43.9c-10.2-34-14.1-76.3-5.8-93.7c11.5-24,37.5-56.3,37.5-56.3
						s80.3,5.2,83.4,6.3c3.1,1,19.8,31.3,19.8,31.3l6.4,93l-25.1,125.9l-44.5,32.2c-8.8,6.4-21.2,4.5-27.7-4.3l-18.5-24.8
						L1527.9-415.6z"/>
				</g>
				<g>
					<path class="st9" d="M1498-538.4c0,0,0.7,28.1,3.5,35.8c2.8,7.7,12.6,31.6,12.6,31.6s3.5,10.5,9.1,3.5c5.6-7,7.7-26,28.1-30.2
						c20.4-4.2,42.8-3.5,42.8-3.5s11.2-0.7,17.6,9.1c6.3,9.8,14,26,21.8,11.2c7.7-14.7,11.2-68.8,11.2-68.8l4.9,6.3
						c0,0,3.5,107.4,0.7,129.2s-19.7,57.6-58.3,56.2c-38.6-1.4-70.2-17.6-79.3-35.8c-9.1-18.3-19.7-66-19.7-115.1
						C1493.1-508.9,1491.7-529.3,1498-538.4z"/>
				</g>
				<g>
					<path class="st9" d="M1511-594.9c0,0-20.4,12.4-18.6,38.1c1.8,25.7,1.8,31,1.8,31l42.5-70.8l84.1,5.3c0,0,17.7,26.6,23,48.7
						c5.3,22.1,8,4.4,8,4.4s5.6-62.7-46.3-84.4c-52-21.8-92.7-27.4-110.2-20.4c-17.6,7-4.9,26.7-4.9,26.7s6.3,6.3,15.4,7
						C1514.9-608.6,1526-605,1511-594.9z"/>
				</g>
				<g>
					<path class="st15" d="M1551.3-477.1c0,0,31.9-1.6,44.2-0.4c12.3,1.2,7,5.3,7,5.3s-5.7,12.7-12.7,13.5c-7,0.8-28.2,0.8-28.2,0.8
						s-7-1.6-9.8-5.7c-2.9-4.1-4.9-9.4-4.9-9.4S1547.2-476.3,1551.3-477.1z"/>
				</g>
				<g>
					<path class="st15" d="M1744.3,118.7c-8.4,5.8-15.5,14.6-23.5,21.1c-4.7,3.9-10.4,7.7-13,13.4c-5.2,11.4,1,39,10.8,46.8
						c33.1,13.4,50,22.3,63.9-10.1c2.2-11.9-26.1-7.7-27.2-19.8c3.8-5.1,11.5-12.2,14.7-17.6"/>
				</g>
				<g>
					<path class="st16" d="M1528.8-251.6c-0.3,0-0.5,0-0.8-0.1c-4.4-0.6-6.6-6.5-6.9-7.2l0-0.1l-22.8-78.6l4.2-1.2l22.8,78.5
						c0.6,1.6,2.1,4.1,3.4,4.2c0.9,0.1,2.1-0.8,3.4-2.6c6.5-9,29-41.3,29.2-41.6l1.6-2.3l38.2,42.2c0.6,0.4,1.6,0.6,2.7,0.4
						c1.4-0.2,2.7-0.9,3.1-1.8l43.3-74.3l3.8,2.2l-43.3,74.3c-1.1,2-3.5,3.4-6.2,3.9c-2.5,0.4-4.8-0.1-6.4-1.4l-0.2-0.2l-34.7-38.3
						c-5.2,7.5-22.1,31.8-27.7,39.4C1533.4-253.1,1531.1-251.6,1528.8-251.6z"/>
				</g>
				<g>
					<path class="st16" d="M1541.5-273l17.8,30.5l-43.7,316.6c-0.6,4.7,0.5,9.4,3.2,13.2l14.1,17.3l20.1,19.7
						c2.9,2.8,7.4,2.7,10.3-0.1l36.7-36.7c5.3-5.3,8-12.8,7.1-20.3l-33.6-312l17.5-28.6l-28.4-29.1L1541.5-273z"/>
				</g>
			</g>
		</g>
	</g>
</g>
<g id="map">
	<g>
		<g>
			<polygon class="st17" points="2565.5,464.2 2585,431.4 2586.6,409.5 2661.4,406.1 2674.4,394.3 2666.2,360.6 2685.7,337 
				2753.1,309.2 2828.7,401.1 2855.5,474.4 2843.3,476.9 2797.8,464.2 2756.8,446.1 2654.9,461.7 2576.1,476.9 			"/>
			<polygon class="st18" points="1893,817.3 1909.2,847.6 1920.6,1007.7 1824.8,963 1802,1016.1 1582.7,960.5 1587.6,847.6 
				1408.9,847.6 1418.2,821.1 			"/>
			<polygon class="st18" points="904.1,520.3 1055.2,538 1037.7,583.9 1135.6,590.2 1058,810.5 772.1,781.9 			"/>
			<polygon class="st18" points="979.2,210.6 954.8,250.2 965.4,259.5 959.7,276.4 977.6,302.5 998.7,316 967,350.5 970.3,363.1 
				994.6,358.9 1001.1,373.3 1002,392.6 1013.3,412 1075.1,412 1092.1,406.1 1101.5,420.9 1110.8,390.1 1432.8,407.4 1464.9,243.5 
							"/>
			<polygon class="st19" points="1123.2,1137.3 1363.1,1138.3 1412.4,855.3 1588.5,853.6 1582.7,960.5 1802,1016.1 1880,999.2 
				1949.8,1011 1972.6,1110.5 2011.6,1186.3 2001.8,1277.3 1946.6,1290.8 1914.1,1300.9 1888.1,1346.4 1797.1,1396.9 1748.4,1469.4 
				1738.7,1514.9 1776,1627.8 1696.4,1605.9 1624.9,1550.3 1592.5,1476.1 1538.4,1421.8 1496.2,1327.4 1367.9,1298.8 1338.6,1337.5 
				1237.9,1308.9 1200.5,1207.8 1161.6,1190.9 			"/>
			<polygon class="st20" points="928.4,1169 1060,803.4 1418.2,821.1 1363.1,1138.3 1123.2,1137.3 1065.7,1143.7 996.7,1144.6 
				986.9,1190.1 945.5,1182.5 			"/>
			<path class="st21" d="M612.5,484c-3.2,0.8-100.7,149.1-100.7,149.1L671,896l7.3,38.8l-58.5,34.5l-7.3,61.5l-24.4,14.3l-93.4-6.7
				l-53.6-16l-11.4-47.2l-43.9-55.6l-75.5-46.3l2.4-43l-5.7-88.5l26.8-11.8l-18.7-25.3l18.7-25.3l-12.2-40.4l2.4-43l49.5-93.5
				l36.6-48.9L612.5,484z"/>
			<polygon class="st22" points="612.5,484 757.2,502 904.1,520.3 736.8,841.3 711.6,825.3 697,833.7 689.6,881.7 671,896 
				511.8,633.2 			"/>
			<polygon class="st22" points="1135.6,590.2 1501.9,605.4 1475.1,822.7 1404.5,822.4 1058.5,811 			"/>
			<polygon class="st17" points="1784.6,484 1780.9,501.3 1778.5,521.5 1799.2,550.6 1816.2,586 1832.5,623.9 2012.9,613.3 
				2047.7,626.4 2068.8,590.2 2059.9,572.5 2090.8,557.3 2096.5,530.4 2049.3,506.8 2028.2,468.9 			"/>
			<polygon class="st20" points="1745.6,252.3 1847.1,239.7 1871.5,261.6 1917.8,256.6 1964.1,281.8 2054.2,281.8 1974.6,314.7 
				1954.3,345.9 1962.4,361 1940.5,368.6 1951.9,398.9 1945.4,413.3 2030.7,451.2 2028.2,468.9 1784.6,484 1777.2,400.6 
				1762.6,388.8 1774,370.3 1754.5,292.8 1742.3,279.3 			"/>
			<polygon class="st20" points="1494.7,656.8 1850.3,649.2 1869.8,664.3 1866.6,674.5 1891.8,689.6 1903.1,813.5 1475.1,822.7 			
				"/>
			<polygon class="st5" points="1464.5,243.9 1442.6,371.1 1774,370.3 1754.5,292.8 1742.3,279.3 1745.6,252.3 			"/>
			<polygon class="st23" points="935.8,211.9 870.8,319.8 883,345.9 814.7,393.9 826.1,408.2 799.3,436.9 757.1,501.7 1055.2,538 
				1101.5,420.9 1092.5,405.7 1075.5,411.6 1013.7,411.6 1002.4,393.1 1001.5,373.7 995.1,358.5 970.7,362.7 967.4,350.9 
				999.1,315.5 978,302.9 960.1,276.8 965.8,259.1 955.3,249.8 979.6,211.1 			"/>
			<polygon class="st20" points="589.7,271.7 601.9,256.6 604.4,229.6 623.9,209.4 624.7,185.8 650.7,195.9 692.1,203.5 
				695.3,228.8 717.3,211.9 718.9,184.1 717.3,171.5 785.5,195.9 935.8,211.9 870.8,319.8 878.2,335.8 777.4,318.1 706.7,319.8 
				660.4,308 611.7,309.6 619,290.3 			"/>
			<polygon class="st20" points="1111.2,390.5 1435.7,405.3 1397.5,603.3 1124.2,591 1038.1,584.3 			"/>
			<polygon class="st23" points="1415.7,502.4 1684.6,503.4 1705.8,522 1739.9,518.6 1787.4,537.5 1778.9,520.3 1784.6,484 
				1777.6,392.6 1762.6,388.8 1774,370.3 1442.6,371.1 			"/>
			<polygon class="st20" points="2175.2,906.1 2162.2,929.7 2165.5,944.9 2142.7,963.4 2139.1,1007.7 2156.2,1036.3 2143.7,1037.4 
				2167.1,1079.7 2144.4,1121.8 2144.4,1164 2263,1160.6 2272.7,1182.5 2308.9,1204.8 2365.3,1187.6 2327.5,1078.4 2301.9,894.4 			
				"/>
			<polygon class="st23" points="2180.1,875.8 2194.7,838.7 2199.6,810.1 2243.5,813.5 2282.5,801.7 2475.8,778.1 2607.4,757.9 
				2610.6,771.3 2591.1,789.9 2555.4,806.7 2521.3,838.7 2498.5,869.1 2301.9,894.4 2175.2,906.1 			"/>
			<polygon class="st23" points="2440.2,877 2526.7,1011.9 2545.6,1025.8 2545.6,1054.4 2589.5,1135.3 2730.8,1116.8 2771.4,1123.5 
				2797.4,1111.7 2787.7,1076.3 2790.9,1012.3 2721.1,951.6 2670.7,926.4 2605.7,884.2 2578.1,884.2 2584.6,853.9 2498.5,869.1 			
				"/>
			<polygon class="st20" points="2607.4,757.9 2683.7,749.4 2903,700.6 2916,715.7 2891.6,734.3 2922.5,779.8 2938.7,779.8 
				2938.7,798.3 2911.1,811.8 2893.3,864 2860.8,874.1 2768.2,832 2703.2,845.5 2682.1,828.6 2610.6,837.1 2584.6,853.9 
				2498.5,869.1 2521.3,838.7 2560.6,797 2591.1,789.9 			"/>
			<polygon class="st20" points="2405.9,1142.1 2431.9,1167.3 2430.3,1182.5 2477,1170.3 2550.9,1172.4 2589.5,1204.4 
				2605.8,1201.5 2642.7,1170.3 2699.9,1179.1 2790.9,1233.1 2803.9,1297.1 2829.5,1300 2834.8,1329.1 2883.5,1372.9 2938.3,1428.9 
				2983,1452.5 3035,1476.1 3061,1455.9 3055.7,1408.3 3016.7,1320.7 2943.6,1258.3 2938.7,1231.4 2870.5,1182.5 2797,1107.9 
				2589.5,1135.3 2577.4,1113.1 			"/>
			<polygon class="st17" points="1907.2,838.7 2168.7,818.5 2154.1,850.5 2193.5,847.6 2175.2,906.1 2165.5,944.9 2142.7,963.4 
				2139.9,1007.7 2156.2,1036.3 1961.2,1049.8 1949.4,1010.6 1920.6,1007.7 1915.3,882.6 			"/>
			<polygon class="st20" points="2049.3,506.8 2086.7,514.4 2198.8,502.6 2208.5,529.5 2225.6,534.6 2262.1,669.4 2276,679.5 
				2256.5,717.4 2263.8,741.9 2256.5,757.9 2239.4,762.1 2251.6,779.8 2215,772.2 2200.4,784.8 2184.2,770.5 2185.8,752.8 
				2124.9,722.5 2135.4,703.9 2103.8,687.1 2054.2,650.9 2044.1,618.9 2068.8,590.2 2051.8,572.5 2083.1,558.3 2096.5,536.8 
				2073.4,520.3 			"/>
			<polygon class="st23" points="2225.6,534.6 2352.3,524.5 2403.5,641.6 2400.2,659.3 2405.9,671.9 2384,674.5 2362.1,714.9 
				2341.7,704.8 2332,729.2 2308.4,729.2 2257.3,736.4 2257.3,708.6 2276,679.5 2262.1,669.4 2247.6,613.9 			"/>
			<polygon class="st22" points="2403.5,641.6 2424.6,644.1 2441.7,664.3 2483.9,669.4 2505,656.8 2537.9,665.6 2535.1,633.2 
				2556.2,639.1 2564.3,610.4 2596.4,588.1 2535.1,477.3 2492.8,507.6 2481.5,527 2417.3,506.8 2408.4,520.3 2352.3,524.5 			"/>
			<path class="st21" d="M2537.5,483.7l28.4-19l10.6,12.6c0,0,176.3-31.2,180.3-31.2s41.4,18.5,41.4,18.5l-0.8,25.3l39.8,21.9
				l-7.3,31.2l-20.3,7.6L2596,587.7L2537.5,483.7z"/>
			<polygon class="st20" points="2564.3,610.4 2556.2,639.1 2535.1,633.2 2537.9,665.6 2524.9,672.4 2541.4,692.1 2602.1,728.9 
				2665.5,696 2669.1,638.2 2687.8,648.3 2708.1,605 2702.4,588.5 2717,583.5 2732.5,596.2 2743.4,583.9 2710.9,567.3 2596.4,588.1 
							"/>
			<polygon class="st5" points="2520.5,771.8 2576.5,713.7 2602.1,728.9 2665.5,696 2669.1,638.2 2687.8,648.3 2708.1,605 
				2702.4,588.5 2717,583.5 2732.5,596.2 2743.4,583.5 2782.8,610.4 2782.8,626.4 2826.3,632.7 2861.6,650.9 2858.3,666 
				2893.3,708.6 2683.7,749.4 2599.7,760.5 			"/>
			<polygon class="st24" points="2753.6,309.6 2785.2,353.5 2829.1,401.5 2856.7,396.4 2829.9,345.9 2822.6,325.6 2834,315.5 
				2817.7,290.3 2790.9,297.8 			"/>
			<polygon class="st20" points="2836,424.6 2922.5,411.6 2951.7,429.3 2959.1,420.9 2976.1,420.9 2994.8,408.2 2983.4,401.5 
				2966.4,408.2 2926.6,391.4 2927.4,378.7 2912.8,368.6 2902.2,382.9 2829.1,401.5 			"/>
			<polygon class="st23" points="2826.3,283.1 2866.9,323.5 2912.3,369 2911.5,331.1 2930.2,323.5 2937.5,298.3 2961.9,290.7 
				2983.8,271.3 2974.9,252.8 2957.8,253.6 2948.1,240.1 2931,238.4 2887.2,190.4 2862,187.9 2840.9,198 2827.9,190.4 2823,215.7 
				2826.3,242.7 2840.9,260.4 			"/>
			<polygon class="st20" points="2843.3,476.9 2855.5,474.4 2860.4,496.3 2888.8,524.1 2884.7,577.1 2864.4,567 2855.5,572.9 
				2820.6,551 2829.9,543 2837.2,511.8 2797.4,489.9 2798.2,464.7 			"/>
			<polygon class="st24" points="2877.4,476.9 2881.5,492.9 2905.9,481.1 2936.7,453.3 2913.2,458.3 2892,470.1 			"/>
			<polygon class="st22" points="2053.8,650.4 2092.8,674 2103.4,686.7 2119.6,691.7 2135,703.5 2127.7,719.5 2162.6,740.6 
				2185.4,752.4 2183.8,770.1 2200.8,783.6 2215.4,811.4 2199.2,809.7 2193.5,847.6 2153.7,850.1 2168.3,818.1 1906.8,838.3 
				1893,817.3 1901.1,797 1891.4,689.2 1866.2,674 1869.4,663.9 1849.9,648.8 1829.6,631.9 1832.1,623.5 2008.3,613.4 2032.7,605.8 
				2044.1,619.3 			"/>
			<g>
				<path class="st25" d="M307.5,857.7l6.4,21.2l16.4,54.6l60.1,42.1l30.9,92.7L556,1102l26,25.3l58.5,13.5l107.2,72.5
					c0,0,131.6,23.6,134.8,23.6c3.2,0,73.1,21.9,73.1,21.9l40.6-33.7l125.1-16.9l40.6,38.8l35.7,23.6l16.2,75.8l97.5,55.6
					c0,0,34.1-25.3,52-52.2c0,0,104,13.5,115.3,20.2c11.4,6.7,17.9,3.4,30.9,32c13,28.6,9.7,59,29.2,75.8
					c19.5,16.9,26,8.4,34.1,43.8c8.1,35.4,3.2,42.1,19.5,53.9c16.2,11.8,26,3.4,43.9,30.3c17.9,27,16.2,45.5,48.7,62.3
					c32.5,16.9,91,33.7,91,33.7v-74.1l-79.6-21.9l-45.5-45.5l-26-10.1l-32.5-74.1l-58.3-64.3l-38.4-84.8c0,0-49.5-19.4-54.4-19.4
					c-4.9,0-39-1.7-39-1.7l-34.5-7.2l-29.6,38.3l-86.9-29.5l-13.8,0.8l-13.8-43l-23.1-57.7l-43.5-24.9l-33.9-45.6l-57.9,6l-69,0.8
					l-9.7,45.5l-21.1-3.4l-55.2-20.2l-60.1,1.7l-69.9-8.4l-76.4-50.6L595,1065l-14.6-21.9L440.7,1022l-13-54.8l-24.4-28.6l-6.5-18.5
					l-29.2-8.4l-26-20.2l-9.7-1.7L307.5,857.7z"/>
				<path class="st25" d="M1746,1550.3l95-116.3l61.7-15.2c0,0,16.2-37.1,26-52.2c9.7-15.2,19.5-11.8,32.5-16.9
					c13-5.1,35.7-1.7,52-15.2c16.2-13.5,34.1-16.9,34.1-16.9l92.6,8.4l11.4-8.4c0,0,6.5,25.3,14.6,28.6s29.2,5.1,29.2,5.1l39,5.1
					c0,0,27.6-25.3,63.4-20.2c35.7,5.1,56.9,5.1,56.9,5.1l17.9-21.9c0,0-16.2-14.3-18.7-32c-2.4-17.7-2.4-43-2.4-43l33.3,14.3
					l47.1-24.4c0,0,99.9,11,121.8,4.2s31.7,12.6,31.7,12.6l36.6,5.1c0,0,16.2-21.1,35.7-17.7c19.5,3.4,52,18.5,52,18.5
					s34.9,20.2,43.9,43s12.2,35.4,12.2,35.4s9.7,13.5,21.9,14.3s19.5,18.5,19.5,18.5l52.8,65.7l39.8,7.6l34.1,32.9
					c0,0,30.1,26.1,41.4,29.5s56,17.7,56,17.7l18.7-6.7l9.3-58.1l-25.6,16.8l-42.6-19.3l-28.8-23.6l-24.8-4.2l-31.7-41.7l-23.1-17.7
					l-9.7-2.5l-38.2-35.8l-2-28.6l-19.5-6.3l-9.7-16.4l-1.2-25.3l-11.4-19.4c0,0-89.3-52.2-90.2-53.1c-0.8-0.8-16.6-2.1-16.6-2.1
					l-41-9.7l-36.9,33.7l-16.3,2.9l-20.3-20.6l-18.3-11.4l-77.2-2.2l-39,2.5l-2.4,17.7l-10.6-0.8l-10.6,5.1l-17.1-29.5l-9.7,11.8
					l-0.8,11.8l-19.5-12.6l-13.8,17.7l-40.6,7.6l-19.5-6.7l-6.5,34.5l22.7-15.2l10.6,11l-17.9,36.2l13.8,8.4l29.2,11.8l-3.2,10.1
					l-13,0.8l-46.3-20.2l-16.2,20.2l-21.9-9.3l-35.7,10.1c0,0-23.6-5.9-34.1-17.7c-10.6-11.8-18.7-24.4-30.9-22.7
					s-19.5,3.4-19.5,3.4l-1.6,25.3c0,0-28.4,1.7-37.4-3.4c-8.9-5.1-34.9-16.9-47.1-13.5s-33.3,12.6-33.3,12.6s-78,12.6-87.7,23.6
					c-9.7,11-26,45.5-26,45.5l-35.7,18.5l-56.9,25.3c0,0-14.6,16-21.1,26.1c-6.5,10.1-41.4,69.1-41.4,69.1s-1.6,11,0.8,20.2
					C1736.2,1514.9,1746,1550.3,1746,1550.3z"/>
				<path class="st25" d="M2797.4,1111.7c6.1,0.4,2-89.7,14.2-99.8c12.2-10.1,48.7-28.6,48.7-28.6l7.3-50.6c0,0,30.1-8.4,33.3-12.6
					c3.2-4.2,7.3-24.4,7.3-24.4l12.2-41.3l15.4-5.1l13.8-77.5l-6.5-11l-26.8,17.3l2.4,13.8l9.7-5.1l10.6,11l-33.7,19.4l-16.7,32
					l-1.6,17.3l-26,7.1l-23.6,32l0.8,34.5l-27.6,25.3c0,0-17.1,25.3-19.5,35.4c-2.4,10.1-7.3,38.8-7.3,38.8l3.3,50.6L2797.4,1111.7z
					"/>
				<polygon class="st25" points="2894.5,615.9 2896.1,634.4 2896.9,703.5 2886.4,706.9 2862.8,679.1 2849.8,678.2 2842.5,669.8 
					2857.9,665.6 2861.2,650.4 2826.3,632.7 2814.3,631.3 2813.3,614.2 2796.2,582.2 2808.5,566.8 2814.9,586.4 2813.3,597.4 
					2845.7,631.9 2870.1,637.8 2870.9,653.8 2882.3,671.5 2886.3,651 2886.4,632.7 				"/>
				<path class="st25" d="M2884.7,577.1l29.2-71.6l34.1-7.6c0,0,20.3-21.1,24.4-27c4.1-5.9,11.4-27.8,11.4-27.8l0.8-31.5l-25.2,9.6
					l-7.3,8.4l-12.6-0.3l-13.4,13.8l-32.5,10.1l-38.2,21.1l4.9,21.9l28.4,27.8L2884.7,577.1z"/>
				<path class="st25" d="M2912.3,369l-0.8-37.9l18.7-7.6l7.3-25.3l24.4-7.6l21.9-19.4l-2.4,64.9c0,0-21.1,11-28.4,11.8
					c0,0-6.5,4.2-8.9,13.5c-2.4,9.3-11.4,16-16.2,17.7L2912.3,369z"/>
				<polygon class="st25" points="2211.4,535.9 2175.6,441.5 2174,423 2161,404.4 2175.6,396 2191.9,392.6 2211.4,340.4 2291,316.8 
					2292.6,348.8 2273.1,357.2 2269.9,375.8 2247.1,384.2 2240.6,406.1 2245.5,423 2237.4,436.4 2273.1,488.7 2253.6,535.9 				"/>
				<polygon class="st25" points="2050.6,283.1 2048.9,332 2018.1,335.3 2016.4,316.8 1978.3,314.3 				"/>
			</g>
			<polygon class="st18" points="409.8,453.3 507.3,350.5 590.1,272.1 629.1,286.5 621,306.7 660.8,308.4 733.1,316.8 780.2,308.4 
				870.4,320.2 882.6,345.4 840.3,380.8 822.5,387.6 825.7,408.6 798.9,436.4 756.7,501.3 			"/>
			<polygon class="st18" points="2577.7,883.8 2584.2,853.5 2619.1,837.5 2697.1,825.7 2721.5,845.9 2767,832.4 2870.9,876.2 
				2837.6,905.7 2838.4,940.3 2807.6,974 2790.9,1012.3 2731.2,960.5 2670.3,925.9 2605.3,883.8 			"/>
			<polygon class="st17" points="2854.7,393.5 2820.6,327.8 2833.6,315.1 2817.3,289.8 2826.3,283.1 2912.3,369 2901.8,385 			"/>
			<path class="st18" d="M2716.6,568.7c3.2-2.5,104-17.7,104-17.7l-24.4,31.2l17.1,32l0.8,16l-31.7-4.2v-16l-39-26.1L2716.6,568.7z"
				/>
			<polygon class="st24" points="2820.6,551 2855.5,572.9 2864.4,567 2884.7,577.1 2894.5,615.9 2886.4,632.7 2886.3,651 
				2882.3,671.5 2870.9,653.8 2870.1,637.8 2845.7,631.9 2813.3,597.4 2814.9,586.4 2810.4,571.6 			"/>
			<polygon class="st23" points="2253.6,534.2 2270.7,487 2237.4,436.4 2245.5,417.9 2239.8,404.4 2247.9,384.2 2273.1,357.2 
				2343,362.3 2356,397.7 2346.2,419.6 2362.5,431.4 2390.1,411.2 2427.4,436.4 2418.5,461.7 2416.1,507.2 2408.8,520.7 			"/>
			<polygon class="st23" points="1975,315.1 2016.4,316.8 2018.1,335.3 2048.9,332 2133.4,289 2128.5,318.5 2253.6,305.8 
				2298.3,316.8 2211.4,340.4 2191.9,392.6 2179.7,394.3 2161,404.4 2174,423 2173.2,435.6 2198.8,502.6 2178.1,506.4 2063.6,514.8 
				2044.9,505.5 2028.6,469.3 2031.1,451.6 1945.8,413.7 1948.2,387.6 1940.9,369 1962.8,356.4 1954.7,342.9 			"/>
			<polygon class="st18" points="1418.6,502.2 1684.2,503 1705.4,521.5 1739.5,518.2 1787.4,537.5 1815.8,585.6 1832.1,623.5 
				1849.9,648.8 1495,657.2 1501.5,604.9 1397.5,603.3 			"/>
			<polygon class="st18" points="1961.2,1049.8 2143.7,1037.4 2166.7,1079.3 2144,1121.4 2144,1163.5 2262.6,1160.2 2272.3,1182.1 
				2290.2,1194.7 2292.2,1202.7 2283.7,1229.3 2306.4,1214.1 2317,1225 2299.1,1261.3 2342.2,1281.5 2338.9,1291.6 2317,1292.5 
				2279.6,1272.2 2263.4,1292.4 2241.4,1283.2 2205.7,1293.3 2171.6,1275.6 2140.7,1252.8 2121.2,1256.2 2119.6,1281.5 
				2082.2,1278.1 2035.1,1264.6 2001.8,1277.3 2003.9,1238.1 2011.6,1186.3 1972.6,1110.5 			"/>
			<polygon class="st18" points="2301.5,893.9 2438,877 2528.6,1013.6 2545.2,1025.4 2545.6,1054.4 2577.4,1113.1 2405.5,1141.6 
				2434.7,1172.8 2432.3,1190.5 2411.2,1194.7 2394.1,1165.2 2384.4,1177 2383.6,1188.8 2364.1,1176.2 2328.3,1083.5 			"/>
			<polygon class="st24" points="2836,424.6 2922.9,412 2952.1,429.7 2940,429.7 2926.2,443.2 2893.7,453.3 2855.5,474.4 			"/>
			<polygon class="st23" points="772.1,781.9 1058.4,810.9 928.4,1169 799.3,1167.3 654.7,1086.5 586.5,1059.5 580.4,1043.1 
				611.3,1017.8 619.8,969.3 661.6,938.6 661.2,901.1 687.6,869.5 701,820.2 736.8,841.3 			"/>
		</g>
	</g>
	<g class="st26">
		<path class="st27" d="M418.5,482.9c2.1-7.3,4-14.6,6.4-21.9c21.1-64.6,84.2-115.7,185.8-154.2c74.9-28.4,161.3-46.9,254.2-59.7
			c105.6-14.6,215.4-21.2,328.1-22.4c20.4-0.2,40.9-0.2,61.5,0.1c6.7,0.1,8.5-0.8,8.7-3.9c1.7-24.4,3.7-48.8,5.6-73.3
			c1.2-14.8,2.5-29.7,3.4-44.5c0.5-7.2,5.3-13,19.3-15.5c14.2-2.5,27.1,0,39.6,5.1c228.1,94.7,456.3,189.3,684.5,284
			c24.2,10,23.2,23.5-2.4,29.6c-187.3,45-374.6,90-561.9,135c-53.4,12.8-106.7,25.7-160.1,38.4c-20.3,4.9-43.8,0.4-51.8-10.1
			c-2.5-3.3-3-7.1-2.7-10.6c3-41.5,6.4-83,9.7-124.5c0.1-1.7,0.3-3.4,0.4-5.5c-3.4-0.3-6.3-0.7-9.1-0.9c-71.5-4.2-143-9-214.4-12.5
			c-85-4.1-168.8-3.6-250,4.6c-92,9.3-174.1,26.9-240.2,58c-19.3,9.1-36.5,19.1-49.7,30.7c-7.5,6.6-19.1,9.6-35.6,7.8
			c-15.4-1.7-24.9-6.8-29.5-14.1c-0.2-0.4-0.9-0.7-1.3-1C417.5,495.5,418,489.2,418.5,482.9z"/>
	</g>
	<g class="st26">
		<path class="st27" d="M2753.6,574.6"/>
		<path class="st27" d="M2717.9,550.8c1.4,69.5-38.2,147.2-104.3,209.6c-48.7,46-108.7,84.9-175.2,119.7
			c-75.5,39.5-156.3,72.1-240.7,100c-15.3,5-30.7,9.9-46.2,14.4c-5.1,1.5-6.2,2.8-5.5,6c5.3,24.8,10.2,49.6,15.3,74.5
			c3.1,15.1,6,30.2,9.3,45.3c1.6,7.3-0.5,14.2-10.4,20c-10,5.9-20.4,6.4-31.1,4.2c-196.7-40.6-393.5-81.2-590.3-121.8
			c-20.9-4.3-23.7-18-6.1-30.2c128.8-89.2,257.6-178.4,386.4-267.6c36.7-25.4,73.3-50.8,110.1-76.2c14-9.6,32.8-10.7,41.6-2.2
			c2.8,2.7,4.1,6.4,4.9,10c8.8,42.2,17.3,84.4,25.9,126.5c0.4,1.7,0.7,3.4,1.1,5.6c2.7-0.5,4.9-0.7,7.1-1.2
			c54.8-12.7,109.9-24.8,164.5-38.2c65-16,127.8-36.3,186.7-63.7c66.7-31,123.7-68,165.1-114.7c12.1-13.6,22.4-27.7,29.2-42.4
			c3.9-8.3-0.1-8.1,12.8-10.2L2717.9,550.8z"/>
	</g>
	<g class="st26">
		<line class="st28" x1="476.2" y1="766.5" x2="476.2" y2="766.5"/>
		<line class="st28" x1="476.2" y1="766.5" x2="476.2" y2="766.5"/>
		<path class="st27" d="M1410.5,1043c0,0-306-304.6-584.8-395.6c-40.6-13.3-78.4-20.9-113.7-23.2c3.4-0.2,6.8-0.4,10.2-0.6
			c223.3-11.6,629.7,105,629.7,105l-28.4,42.4l309.5,0.8L1411.3,640l-23.6,35.2c0,0-403.5-110.1-677.9-88.1
			c-152.1,12.2-231,66.1-251.4,154.9c-1.1,1.5-2.3,2.9-3.4,4.4c0.1,0.2,0.9,1,2,2.2c-0.8,4-1.4,8-2,12.2c0.8,0.4,12.1,3.4,21,5.5
			c0.1,0.1,0.1,0.1,0.2,0.2c0,0,0.1-0.1,0.1-0.1c2.3,0.5,4.4,1,6.1,1.4c1.3-3.9,2.6-7.6,4.1-11.4c38.8-36.5,83.1-62.4,133.3-77
			c53.1-15.4,114.5-11.1,191.3,17.1c222.3,81.6,526.2,395.3,526.2,395.3l-58.1,38.6l295.7,133.4l-116.1-252.8L1410.5,1043z"/>
		<line class="st28" x1="482.4" y1="767.8" x2="482.4" y2="767.8"/>
	</g>
	<g class="st26">
		<line class="st28" x1="2697" y1="541" x2="2697" y2="541"/>
		<line class="st28" x1="2691.2" y1="537.5" x2="2691.2" y2="537.5"/>
		<path class="st27" d="M2863.7,706.4c-13-85.9-68.8-143.3-159.9-178.8c-0.5-0.7-1.1-1.3-1.6-2c-6.1-10.5-9.9-21.7-11.2-33.7
			c-1.6-14.7,2.4-30.7,13.4-49.7c31.9-55.2,128.9-122.1,128.9-122.1l7.5,17l49-72.4l-72.1,19.9l6.2,14.1c0,0-94.7,67.8-131.7,137.5
			c-12.7,23.9-16.5,45.1-12.4,64.1c-65.4-69.5-137.2-103.4-218-94.8c-155.1,16.5-289.5,171.8-289.5,171.8l-35.2-29.2l-27,150.9
			l158.1-42.2l-42.4-35.1c0,0,131.6-161.7,253.6-180.9c42.1-6.6,79,0.2,114.3,19.1c34.4,18.4,67.1,43.9,98.2,76
			c-0.3,0.6-0.6,1.2-0.8,1.8c1.6,0.7,3.1,1.5,4.6,2.3c0.4,0.4,0.8,0.8,1.2,1.3c0.2-0.1,0.3-0.3,0.5-0.4c34.7,16,64.2,36.6,88.2,63.6
			c23.7,26.7,39.3,57.4,43.5,98.4c12.3,118.8-95.9,295.8-95.9,295.8l-40.3-26.7l1.1,159.9l123.7-77.2l-33.5-22.2
			C2784.2,1032.1,2886.2,854.7,2863.7,706.4z"/>
	</g>
</g>
<g id="pin" class="st0">
	<g class="st2">
		<path class="st29" d="M1837.8,916.7c-33.2,0-60.1,27.9-60.1,62.3c1.6,53.9,52,53.9,61.7,134.8c6.5-77.5,56.9-85.9,58.5-134.8
			C1897.9,944.6,1870.9,916.7,1837.8,916.7z M1838.6,977.3c-7.6,0-13.8-6.4-13.8-14.3s6.2-14.3,13.8-14.3c7.6,0,13.8,6.4,13.8,14.3
			S1846.2,977.3,1838.6,977.3z"/>
		<path class="st4" d="M2025.4,569.9c-26.5,0-47.9,22.3-47.9,49.7c1.3,43,41.4,43,49.2,107.5c5.2-61.8,45.3-68.5,46.6-107.5
			C2073.3,592.2,2051.8,569.9,2025.4,569.9z M2026,618.3c-6.1,0-11-5.1-11-11.4s4.9-11.4,11-11.4c6.1,0,11,5.1,11,11.4
			S2032.1,618.3,2026,618.3z"/>
		<path class="st29" d="M1859.7,287.7c-23.8,0-43,20-43,44.7c1.2,38.6,37.2,38.6,44.2,96.5c4.7-55.5,40.7-61.6,41.9-96.5
			C1902.7,307.6,1883.5,287.7,1859.7,287.7z M1860.3,331.1c-5.5,0-9.9-4.6-9.9-10.3c0-5.7,4.4-10.3,9.9-10.3s9.9,4.6,9.9,10.3
			C1870.2,326.5,1865.7,331.1,1860.3,331.1z"/>
		<path class="st29" d="M2706.7,380c-20.6,0-37.2,17.3-37.2,38.6c1,33.4,32.2,33.4,38.3,83.5c4-48,35.2-53.3,36.2-83.5
			C2744,397.3,2727.3,380,2706.7,380z M2707.2,417.6c-4.7,0-8.6-4-8.6-8.9s3.8-8.9,8.6-8.9s8.6,4,8.6,8.9S2712,417.6,2707.2,417.6z"
			/>
		<path class="st29" d="M2410.9,920.9c-30.8,0-55.7,25.9-55.7,57.8c1.5,50,48.2,50,57.2,125c6-71.9,52.7-79.7,54.2-125
			C2466.6,946.8,2441.7,920.9,2410.9,920.9z M2411.6,977.1c-7.1,0-12.8-5.9-12.8-13.3c0-7.3,5.7-13.3,12.8-13.3
			c7.1,0,12.8,5.9,12.8,13.3C2424.4,971.2,2418.7,977.1,2411.6,977.1z"/>
		<path class="st29" d="M1143.8,726.3c-30.8,0-55.7,25.9-55.7,57.8c1.5,50,48.2,50,57.2,125c6-71.9,52.7-79.7,54.2-125
			C1199.5,752.2,1174.6,726.3,1143.8,726.3z M1144.5,782.5c-7.1,0-12.8-5.9-12.8-13.3s5.7-13.3,12.8-13.3c7.1,0,12.8,5.9,12.8,13.3
			S1151.6,782.5,1144.5,782.5z"/>
		<path class="st29" d="M694.9,383.7c-23.8,0-43,20-43,44.7c1.2,38.6,37.2,38.6,44.2,96.5c4.7-55.5,40.7-61.5,41.9-96.5
			C738,403.7,718.7,383.7,694.9,383.7z M695.5,427.2c-5.5,0-9.9-4.6-9.9-10.3c0-5.7,4.4-10.3,9.9-10.3s9.9,4.6,9.9,10.3
			C705.4,422.6,701,427.2,695.5,427.2z"/>
		<path class="st4" d="M1260.2,567c-27.8,0-50.3,23.4-50.3,52.2c1.4,45.2,43.5,45.2,51.7,112.9c5.4-64.9,47.6-72,49-112.9
			C1310.6,590.4,1288,567,1260.2,567z M1260.9,617.8c-6.4,0-11.6-5.4-11.6-12s5.2-12,11.6-12s11.6,5.4,11.6,12
			S1267.3,617.8,1260.9,617.8z"/>
		<path class="st4" d="M1084.9,165.1c-18.4,0-33.4,15.5-33.4,34.6c0.9,30,28.9,30,34.3,74.9c3.6-43.1,31.6-47.7,32.5-74.9
			C1118.3,180.7,1103.3,165.1,1084.9,165.1z M1085.3,198.8c-4.2,0-7.7-3.6-7.7-8s3.4-8,7.7-8s7.7,3.6,7.7,8
			S1089.6,198.8,1085.3,198.8z"/>
		<path class="st4" d="M862.9,713.6c-29.1,0-52.7,24.5-52.7,54.6c1.4,47.2,45.5,47.2,54.1,118.1c5.7-67.9,49.8-75.3,51.2-118.1
			C915.6,738.1,892,713.6,862.9,713.6z M863.6,766.8c-6.7,0-12.1-5.6-12.1-12.5c0-6.9,5.4-12.5,12.1-12.5c6.7,0,12.1,5.6,12.1,12.5
			C875.7,761.2,870.3,766.8,863.6,766.8z"/>
		
			<radialGradient id="SVGID_9_" cx="1839.891" cy="5183.0469" r="44.1609" gradientTransform="matrix(1.5984 0 0 1.0721 -1087.8862 -4450.7412)" gradientUnits="userSpaceOnUse">
			<stop  offset="0.561" style="stop-color:#4E4D4D;stop-opacity:0.2"/>
			<stop  offset="0.7805" style="stop-color:#4E4D4D;stop-opacity:0"/>
		</radialGradient>
		<ellipse class="st30" cx="1853" cy="1106.2" rx="79.2" ry="52.2"/>
		
			<radialGradient id="SVGID_10_" cx="1484.6848" cy="5092.8867" r="44.1614" gradientTransform="matrix(1.8033 0 0 1.0721 -1390.063 -4728.1597)" gradientUnits="userSpaceOnUse">
			<stop  offset="0.561" style="stop-color:#4E4D4D;stop-opacity:0.2"/>
			<stop  offset="0.7805" style="stop-color:#4E4D4D;stop-opacity:0"/>
		</radialGradient>
		<ellipse class="st31" cx="1287.3" cy="732.1" rx="89.3" ry="52.2"/>
		
			<radialGradient id="SVGID_11_" cx="1173.3405" cy="4960.625" r="44.1619" gradientTransform="matrix(1.7459 0 0 1.0116 -1334.3024 -4495.5176)" gradientUnits="userSpaceOnUse">
			<stop  offset="0.561" style="stop-color:#4E4D4D;stop-opacity:0.2"/>
			<stop  offset="0.7805" style="stop-color:#4E4D4D;stop-opacity:0"/>
		</radialGradient>
		<ellipse class="st32" cx="714.2" cy="522.8" rx="86.5" ry="49.3"/>
		
			<radialGradient id="SVGID_12_" cx="1381.3136" cy="4984.1577" r="35.9313" gradientTransform="matrix(1.8033 0 0 1.0721 -1390.063 -5062.7144)" gradientUnits="userSpaceOnUse">
			<stop  offset="0.561" style="stop-color:#4E4D4D;stop-opacity:0.2"/>
			<stop  offset="0.7805" style="stop-color:#4E4D4D;stop-opacity:0"/>
		</radialGradient>
		<ellipse class="st33" cx="1100.9" cy="281" rx="72.7" ry="42.5"/>
		
			<radialGradient id="SVGID_13_" cx="1415.7706" cy="5135.5303" r="44.1614" gradientTransform="matrix(1.8033 0 0 1.0721 -1390.063 -4596.9482)" gradientUnits="userSpaceOnUse">
			<stop  offset="0.561" style="stop-color:#4E4D4D;stop-opacity:0.2"/>
			<stop  offset="0.7805" style="stop-color:#4E4D4D;stop-opacity:0"/>
		</radialGradient>
		<ellipse class="st34" cx="1163" cy="909.1" rx="89.3" ry="52.2"/>
		
			<radialGradient id="SVGID_14_" cx="1263.0784" cy="5128.2197" r="44.1614" gradientTransform="matrix(1.8033 0 0 1.0721 -1390.063 -4619.4419)" gradientUnits="userSpaceOnUse">
			<stop  offset="0.561" style="stop-color:#4E4D4D;stop-opacity:0.2"/>
			<stop  offset="0.7805" style="stop-color:#4E4D4D;stop-opacity:0"/>
		</radialGradient>
		<ellipse class="st35" cx="887.6" cy="878.7" rx="89.3" ry="52.2"/>
		
			<radialGradient id="SVGID_15_" cx="2192.5535" cy="5130.1982" r="42.802" gradientTransform="matrix(1.5984 0 0 1.0348 -1087.8862 -4210.2378)" gradientUnits="userSpaceOnUse">
			<stop  offset="0.561" style="stop-color:#4E4D4D;stop-opacity:0.2"/>
			<stop  offset="0.7805" style="stop-color:#4E4D4D;stop-opacity:0"/>
		</radialGradient>
		<ellipse class="st36" cx="2416.7" cy="1098.6" rx="76.8" ry="48.9"/>
		
			<radialGradient id="SVGID_16_" cx="1945.588" cy="5035.5249" r="42.802" gradientTransform="matrix(1.5984 0 0 1.0348 -1087.8862 -4491.4048)" gradientUnits="userSpaceOnUse">
			<stop  offset="0.561" style="stop-color:#4E4D4D;stop-opacity:0.2"/>
			<stop  offset="0.7805" style="stop-color:#4E4D4D;stop-opacity:0"/>
		</radialGradient>
		<ellipse class="st37" cx="2021.9" cy="719.5" rx="76.8" ry="48.9"/>
		
			<radialGradient id="SVGID_17_" cx="1854.7255" cy="4754.8901" r="42.8037" gradientTransform="matrix(1.4292 0 0 0.901 -780.7211 -3854.0725)" gradientUnits="userSpaceOnUse">
			<stop  offset="0.561" style="stop-color:#4E4D4D;stop-opacity:0.2"/>
			<stop  offset="0.7805" style="stop-color:#4E4D4D;stop-opacity:0"/>
		</radialGradient>
		<ellipse class="st38" cx="1870.1" cy="430.1" rx="68.6" ry="42.5"/>
		
			<radialGradient id="SVGID_18_" cx="2441.2307" cy="4775.1875" r="42.8037" gradientTransform="matrix(1.4292 0 0 0.901 -780.7211 -3801.5879)" gradientUnits="userSpaceOnUse">
			<stop  offset="0.561" style="stop-color:#4E4D4D;stop-opacity:0.2"/>
			<stop  offset="0.7805" style="stop-color:#4E4D4D;stop-opacity:0"/>
		</radialGradient>
		<ellipse class="st39" cx="2708.3" cy="500.9" rx="68.6" ry="42.5"/>
		<ellipse class="st4" cx="744.9" cy="579.2" rx="19.1" ry="10.5"/>
		<ellipse class="st4" cx="1539.3" cy="1039.3" rx="19.1" ry="10.5"/>
		<ellipse class="st4" cx="1734.2" cy="483.2" rx="19.1" ry="10.5"/>
		<ellipse class="st25" cx="2301.9" cy="1117.6" rx="19.1" ry="10.5"/>
		<ellipse class="st25" cx="1840.6" cy="780.6" rx="19.1" ry="10.5"/>
		<ellipse class="st7" cx="2087.5" cy="774.7" rx="19.1" ry="10.5"/>
		<ellipse class="st4" cx="2533.8" cy="900.3" rx="14.6" ry="8.1"/>
		<ellipse class="st4" cx="2144.8" cy="483.3" rx="14.6" ry="8.1"/>
		<ellipse class="st15" cx="2510.3" cy="622.3" rx="14.6" ry="8.1"/>
		<ellipse class="st15" cx="781.8" cy="277.7" rx="14.6" ry="8.1"/>
		<ellipse class="st15" cx="2715" cy="998.9" rx="14.6" ry="8.1"/>
		<ellipse class="st18" cx="1776.8" cy="1329.3" rx="23.6" ry="13"/>
		<ellipse class="st15" cx="707.1" cy="790.1" rx="23.6" ry="13"/>
		<ellipse class="st40" cx="1450.3" cy="560.8" rx="13.8" ry="7.6"/>
		<ellipse class="st29" cx="1629.4" cy="431" rx="19.1" ry="10.5"/>
		<ellipse class="st41" cx="1168.9" cy="522" rx="19.1" ry="10.5"/>
	</g>
</g>
</svg>
